<?xml version="1.0" encoding="utf-8"?>
<!-- Generator: Adobe Illustrator 26.0.3, SVG Export Plug-In . SVG Version: 6.00 Build 0)  -->
<svg version="1.1" id="Calque_1" xmlns="http://www.w3.org/2000/svg" xmlns:xlink="http://www.w3.org/1999/xlink" x="0px" y="0px"
	 viewBox="0 0 256 256" style="enable-background:new 0 0 256 256;" xml:space="preserve">
<style type="text/css">
	.st0{fill:#FFFFFF;}
</style>
<desc>Created with Fabric.js 1.7.22</desc>
<g transform="translate(128 128) scale(0.72 0.72)">
	<g transform="translate(-175.05 -175.05000000000004) scale(3.89 3.89)">
		<path class="st0" d="M75.8,85.1H14.2c-1.7,0-3-1.3-3-3V41.2c0-1.7,1.3-3,3-3s3,1.3,3,3v37.9h55.7V41.2c0-1.7,1.3-3,3-3s3,1.3,3,3
			v40.9C78.8,83.8,77.5,85.1,75.8,85.1z"/>
		<path class="st0" d="M86.5,39.1c-0.6,0-1.2-0.2-1.7-0.5L45,11.5L5.2,38.6c-1.4,0.9-3.2,0.6-4.2-0.8c-0.9-1.4-0.6-3.2,0.8-4.2
			L43.3,5.4c1-0.7,2.4-0.7,3.4,0l41.5,28.2c1.4,0.9,1.7,2.8,0.8,4.2C88.4,38.6,87.5,39.1,86.5,39.1z"/>
		<path class="st0" d="M75.8,19.2c-1.7,0-3-1.3-3-3v-4.8h-7.6c-1.7,0-3-1.3-3-3s1.3-3,3-3h10.6c1.7,0,3,1.3,3,3v7.8
			C78.8,17.9,77.5,19.2,75.8,19.2z"/>
	</g>
</g>
</svg>
